#define image1_width  16
#define image1_height 16
static unsigned char image1_bits[] = {
 0x4a,0x02,0xf5,0xff,0x4a,0x02,0x55,0x02,0x50,0x02,0x50,0x02,
 0x50,0x02,0x50,0x02,0x50,0x02,0x50,0x02,0x50,0x02,0x50,0x02,
 0x50,0x02,0x50,0x02,0x50,0x02,0x50,0x02};
